<?xml version="1.0" standalone="no"?>
<!DOCTYPE svg PUBLIC "-//W3C//DTD SVG 20010904//EN"
 "http://www.w3.org/TR/2001/REC-SVG-20010904/DTD/svg10.dtd">
<svg version="1.0" xmlns="http://www.w3.org/2000/svg"
 width="700.000000pt" height="700.000000pt" viewBox="0 0 700.000000 700.000000"
 preserveAspectRatio="xMidYMid meet">
<metadata>
Created by potrace 1.11, written by Peter Selinger 2001-2013
</metadata>
<g transform="translate(0.000000,700.000000) scale(0.100000,-0.100000)"
fill="#000000" stroke="none">
<path d="M3395 6986 c-141 -46 -236 -146 -274 -289 -5 -20 -10 -128 -11 -240
-1 -220 -3 -250 -20 -317 -6 -25 -13 -54 -15 -65 -11 -47 -86 -185 -130 -240
-112 -139 -299 -254 -458 -280 -23 -4 -51 -9 -62 -11 -41 -8 -164 -5 -226 6
-189 33 -299 100 -507 307 -151 150 -186 177 -267 202 -297 92 -576 -187 -484
-484 25 -81 53 -117 221 -287 148 -150 214 -242 253 -355 35 -101 45 -156 46
-258 4 -261 -132 -515 -351 -659 -64 -42 -179 -94 -229 -103 -14 -2 -44 -8
-65 -13 -21 -5 -134 -9 -250 -10 -235 -1 -257 -3 -336 -33 -80 -29 -178 -130
-209 -214 -20 -54 -23 -76 -19 -160 3 -83 9 -107 33 -157 37 -74 125 -156 203
-186 60 -24 69 -24 432 -34 162 -4 182 -7 258 -32 199 -67 358 -207 449 -394
38 -79 60 -140 69 -200 2 -14 7 -36 10 -50 7 -32 6 -154 -1 -205 -18 -115 -78
-269 -131 -335 -43 -53 -104 -119 -200 -215 -156 -156 -189 -212 -198 -337 -9
-115 32 -219 118 -303 99 -96 233 -133 364 -99 84 22 128 54 285 208 194 192
287 253 439 292 90 23 98 24 188 25 291 2 552 -148 693 -397 76 -135 95 -232
96 -504 2 -249 14 -313 80 -400 46 -61 87 -93 161 -128 47 -22 69 -26 150 -26
87 0 101 3 160 32 100 48 165 117 202 212 19 49 22 81 28 315 6 231 9 268 29
335 93 303 335 510 648 555 58 8 170 9 213 1 208 -39 311 -99 514 -300 159
-157 200 -189 268 -212 283 -94 561 150 506 444 -17 93 -50 141 -209 302 -83
85 -171 184 -194 220 -110 167 -150 361 -115 550 7 36 13 70 14 77 1 7 5 16 9
19 4 4 7 14 7 23 0 30 72 166 121 228 92 117 191 193 319 246 112 46 172 55
405 56 236 2 288 8 362 43 61 28 152 119 183 183 22 44 25 63 25 165 0 106 -2
119 -28 170 -33 64 -95 131 -152 165 -76 44 -143 54 -375 55 -291 2 -399 26
-550 126 -332 218 -450 673 -262 1014 45 81 95 142 226 274 71 72 140 145 153
163 83 109 91 293 18 418 -91 156 -277 228 -450 174 -80 -24 -117 -53 -276
-210 -70 -68 -135 -131 -145 -139 -74 -59 -187 -118 -274 -143 -241 -68 -519
-9 -710 152 -161 136 -248 294 -275 506 -2 17 -5 121 -5 233 -1 149 -6 217
-17 255 -49 168 -184 275 -356 283 -50 2 -98 -2 -122 -10z m-180 -2412 c123
-29 210 -79 305 -174 70 -69 94 -101 127 -170 49 -102 64 -159 69 -264 19
-424 -368 -755 -785 -670 -293 59 -519 330 -523 627 -2 186 63 348 193 476
110 110 243 174 391 189 92 9 135 7 223 -14z m1057 -1425 c191 -75 268 -296
165 -472 -106 -180 -356 -214 -506 -68 -60 59 -92 127 -99 208 -6 81 10 143
54 209 37 56 116 115 174 132 61 18 155 14 212 -9z"/>
</g>
</svg>
